<svg width="595" height="595" viewBox="0 0 595 595" fill="none" xmlns="http://www.w3.org/2000/svg">
<!-- <path d="M951.112 97.7666V291.57H886.33V220.133H808.532V291.57H743.75V97.7666H808.532V168.925H886.33V97.7666H951.112Z" fill="black"/> -->
<!-- <path d="M1100.5 271.915H1071.43C1059.43 271.915 1048.92 279.984 1045.83 291.57H978.547L1035.03 97.7666H1136.9L1193.39 291.57H1126.11C1123 279.968 1112.5 271.915 1100.5 271.915ZM1107.01 220.149L1088.19 148.991H1083.76L1064.94 220.149H1107.01Z" fill="black"/>
<path d="M1210.91 194.407C1210.91 139.305 1255.76 94.7363 1310.86 94.7363C1339.37 94.7363 1364.85 106.634 1383.12 125.468L1337.99 171.154C1331.35 163.397 1321.66 158.697 1310.86 158.697C1291.21 158.697 1275.15 174.752 1275.15 194.407C1275.15 214.062 1291.21 230.397 1310.86 230.397C1321.38 230.397 1331.07 225.697 1337.43 218.22L1383.12 263.626C1364.85 282.459 1339.09 294.358 1310.86 294.358C1255.77 294.358 1210.91 249.789 1210.91 194.407Z" fill="black"/>
<path d="M1493.54 235.251L1482.46 248.825V291.454H1417.68V97.6504H1482.46V160.773H1484.4L1531.47 97.6504H1604.29L1535.07 183.747L1608.71 291.438H1532.29L1494.92 235.234H1493.54V235.251Z" fill="black"/>
<path d="M985.743 497.578V384.53H1050.53V496.477C1050.53 520.849 1063.26 533.585 1082.92 533.585C1102.57 533.585 1114.47 520.849 1114.47 496.477V384.53H1179.25V497.578C1179.25 562.919 1133.3 587.553 1081.52 587.553C1029.74 587.553 985.727 562.919 985.727 497.578H985.743Z" fill="black"/>
<path d="M1285.89 435.479V455.693H1392.2V506.9H1285.89V527.393H1392.2V578.338H1221.11V384.534H1392.2V435.479H1285.89Z" fill="black"/>
<path d="M1431.58 530.63H1532.63C1541.21 530.63 1545.37 526.752 1545.37 520.376C1545.37 513.999 1541.23 510.4 1532.35 510.4H1486.39C1454 510.4 1427.7 488.248 1427.7 449.217C1427.7 404.37 1458.43 388.034 1489.44 388.034H1604.07V439.258H1505.24C1497.76 439.258 1492.5 442.019 1492.5 448.938C1492.5 455.857 1497.76 459.193 1505.24 459.193H1548.42C1585.53 459.193 1610.17 481.066 1610.17 520.096C1610.17 556.924 1582.49 581.838 1546.48 581.838H1430.76L1431.6 530.63H1431.58Z" fill="black"/> -->
<!-- <path d="M1692.38 439.258H1634.8V388.034H1814.75V439.258H1757.16V581.838H1692.38V439.258Z" fill="black"/> -->
<!-- <path d="M914.76 408.73L914.727 408.763C896.568 390.637 871.523 379.412 843.947 379.412L748.154 383.816L743.75 479.593C743.75 507.136 754.859 532.082 772.854 550.192L772.887 550.159C791.063 568.45 816.223 579.789 843.947 579.789L939.739 575.385L944.144 479.609C944.144 451.918 932.919 426.873 914.76 408.73ZM892.229 503.257C887.431 514.252 878.606 523.093 867.595 527.892C820.348 548.483 775.073 503.192 795.664 455.944C800.463 444.95 809.288 436.109 820.299 431.31C867.546 410.719 912.821 456.01 892.229 503.241V503.257Z" fill="black"/> -->
<path d="M507.772 87.0421L507.674 87.1402C453.772 33.3003 379.39 0 297.5 0L13.0553 13.0919L0 297.494C0 379.272 32.9942 453.345 86.4058 507.124L86.504 507.025C140.468 561.356 215.192 595 297.5 595L581.945 581.908L595 297.494C595 215.286 561.662 140.882 507.76 87.0298L507.772 87.0421ZM475.894 384.892C458.189 425.517 425.538 458.167 384.9 475.885C210.37 551.945 43.0557 384.634 119.118 210.108C136.823 169.483 169.474 136.833 210.1 119.128C384.63 43.067 551.944 210.378 475.882 384.904L475.894 384.892Z" fill="#FFFFFF"/>
</svg>
